<?xml version="1.0" standalone="no"?>
<!DOCTYPE svg PUBLIC "-//W3C//DTD SVG 20010904//EN"
 "http://www.w3.org/TR/2001/REC-SVG-20010904/DTD/svg10.dtd">
<svg version="1.0" xmlns="http://www.w3.org/2000/svg"
 width="200.000000pt" height="200.000000pt" viewBox="0 0 200.000000 200.000000"
 preserveAspectRatio="xMidYMid meet">
<metadata>
Created by potrace 1.14, written by Peter Selinger 2001-2017
</metadata>
<g transform="translate(0.000000,200.000000) scale(0.100000,-0.100000)"
fill="#000000" stroke="none">
<path d="M1388 1968 c29 -48 41 -218 18 -253 -27 -41 -108 -116 -141 -130 -42
-18 -311 -17 -401 1 -38 8 -84 16 -103 19 -45 5 -128 86 -183 178 -22 37 -46
66 -52 64 -12 -4 -9 -230 3 -235 4 -1 6 -15 3 -30 -5 -37 14 -85 30 -76 7 4 0
-8 -17 -27 -16 -19 -33 -35 -37 -37 -15 -7 -49 -73 -64 -124 -19 -64 -34 -349
-19 -360 5 -4 21 -5 35 -2 14 2 7 -3 -14 -11 -21 -8 -45 -20 -51 -25 -17 -14
-27 -52 -12 -43 7 3 0 -7 -15 -23 -29 -31 -25 -60 5 -48 9 3 14 10 11 16 -3 5
-13 7 -21 4 -8 -3 -11 -1 -8 4 3 6 10 10 15 10 5 0 31 13 57 30 26 16 52 30
57 30 6 0 -13 -14 -42 -31 -28 -17 -52 -35 -52 -40 0 -12 11 -11 60 6 24 8 45
14 47 12 8 -9 -147 -57 -164 -51 -13 4 -15 3 -4 -4 9 -7 10 -12 2 -16 -6 -4
-9 -12 -6 -17 4 -5 1 -9 -4 -9 -6 0 -11 6 -11 13 -1 6 -7 -2 -15 -20 -7 -17
-22 -34 -32 -37 -23 -7 -123 -101 -123 -116 0 -6 -4 -9 -9 -6 -11 7 -66 -63
-89 -115 -38 -85 -42 -115 -42 -292 l0 -177 479 0 c374 0 480 3 484 13 4 10 6
10 6 0 1 -7 10 -13 22 -13 27 0 23 38 -6 54 -11 6 -23 16 -27 21 -5 6 -8 4 -8
-4 0 -8 -2 -12 -5 -9 -3 3 1 18 8 34 45 92 119 259 147 329 30 74 28 71 43 55
7 -8 8 -11 1 -7 -7 4 -14 0 -18 -8 -3 -8 -2 -15 2 -16 4 0 15 -2 25 -4 13 -2
17 1 13 12 -3 8 -6 21 -6 28 0 14 -64 40 -78 31 -5 -3 -20 1 -35 9 -14 7 -28
10 -32 7 -3 -4 -3 2 1 11 3 10 3 17 -2 16 -21 -4 -34 2 -34 16 0 8 6 12 14 9
8 -3 17 -1 21 5 3 6 17 11 30 11 12 0 25 7 28 14 4 10 1 13 -9 9 -8 -3 -14 1
-14 8 0 11 -3 11 -10 -1 -8 -13 -10 -12 -10 3 0 10 -8 20 -17 24 -33 11 -73
57 -45 51 10 -2 62 20 62 27 0 4 -5 3 -12 -1 -7 -5 -9 -2 -5 9 4 11 2 14 -8
11 -9 -4 -13 1 -11 12 3 19 -14 45 -25 38 -4 -2 -10 3 -13 12 -4 10 -2 13 6 8
8 -5 9 -2 5 11 -5 12 3 27 27 51 38 37 73 46 61 17 -29 -69 -4 -99 77 -94 26
2 48 30 48 62 0 32 3 34 31 19 31 -17 24 -57 -16 -93 -19 -17 -35 -36 -35 -43
0 -7 -8 -18 -17 -23 -10 -6 -16 -11 -13 -11 58 -10 152 -12 205 -5 29 4 35 2
20 -4 -14 -7 -16 -10 -5 -11 8 -1 -5 -9 -30 -19 -25 -10 -56 -17 -69 -16 -24
3 -24 3 -4 -14 12 -9 29 -40 39 -69 13 -35 23 -51 32 -47 8 3 12 0 10 -7 -3
-7 -11 -13 -19 -13 -8 0 -24 -13 -36 -29 -12 -16 -35 -38 -50 -49 l-28 -20 32
-35 c50 -54 84 -107 87 -134 1 -13 6 -30 11 -37 6 -10 4 -12 -6 -6 -12 7 -12
6 -1 -7 9 -11 10 -18 2 -23 -5 -3 -10 -12 -10 -18 0 -7 7 -4 14 6 20 26 33 21
39 -16 8 -53 -3 -86 -41 -117 l-37 -30 358 0 357 0 -2 247 c-3 212 -5 248 -18
245 -11 -3 -11 1 3 16 15 16 18 36 16 115 l-1 96 -32 -5 c-25 -3 -27 -3 -11 5
11 5 14 10 7 10 -10 1 -10 4 0 15 14 15 32 11 23 -5 -4 -5 -2 -9 4 -9 7 0 10
39 10 106 -1 66 -4 102 -10 93 -5 -8 -9 -24 -9 -35 0 -12 -6 -27 -14 -34 -18
-14 -60 -136 -52 -149 4 -5 1 -11 -4 -13 -6 -2 -12 -13 -13 -25 0 -12 -4 -20
-8 -17 -8 4 -53 -29 -86 -64 -13 -12 -23 -19 -23 -13 0 6 -15 7 -36 4 -30 -5
-40 -2 -59 19 -19 21 -23 38 -26 107 -4 73 -7 84 -29 102 l-25 20 24 -11 24
-12 -7 83 c-4 46 -9 85 -10 86 -1 2 -38 -1 -82 -6 -43 -5 -92 -7 -109 -4 -16
2 14 -15 67 -40 88 -41 145 -77 119 -77 -5 0 -13 5 -17 11 -11 19 -167 87
-225 98 -30 6 -67 15 -84 20 -26 8 -21 9 35 10 49 1 61 -2 50 -10 -12 -8 -10
-9 10 -5 14 2 62 6 108 7 95 2 132 8 132 20 0 4 -19 10 -42 12 l-43 4 43 1
c38 2 42 4 38 25 -7 31 -14 111 -31 347 -29 416 -37 560 -33 585 l5 25 -104 0
-105 0 20 -32z m45 -465 c-7 -2 -21 -2 -30 0 -10 3 -4 5 12 5 17 0 24 -2 18
-5z m-6 -29 c-3 -3 -12 -4 -19 -1 -8 3 -5 6 6 6 11 1 17 -2 13 -5z m-583 -12
c3 -5 -1 -9 -9 -9 -8 0 -12 4 -9 9 3 4 7 8 9 8 2 0 6 -4 9 -8z m406 -6 c0 -2
-8 -10 -17 -17 -16 -13 -17 -12 -4 4 13 16 21 21 21 13z m-368 -186 c9 0 38
-24 38 -32 0 -2 -16 -5 -35 -6 -37 -3 -43 5 -22 27 10 12 9 13 -7 7 -16 -6
-17 -4 -5 10 8 10 15 12 17 5 2 -6 8 -11 14 -11z m438 -10 c0 -20 -13 -40 -26
-40 -8 0 -12 10 -11 28 2 22 6 28 20 24 9 -2 17 -8 17 -12z m-50 0 c0 -5 -5
-10 -11 -10 -5 0 -7 5 -4 10 3 6 8 10 11 10 2 0 4 -4 4 -10z m-53 -15 c0 -9
-9 -15 -21 -15 -21 1 -21 1 -2 15 24 18 23 18 23 0z m156 -182 c-7 -2 -19 -2
-25 0 -7 3 -2 5 12 5 14 0 19 -2 13 -5z m-38 -13 c3 -5 2 -10 -4 -10 -5 0 -13
5 -16 10 -3 6 -2 10 4 10 5 0 13 -4 16 -10z m138 -27 c-29 -2 -77 -2 -105 0
-29 2 -6 3 52 3 58 0 81 -1 53 -3z m-673 -29 c0 -13 -7 -15 -31 -10 -17 3 -52
7 -78 8 l-46 1 50 7 c89 12 105 11 105 -6z m48 -2 c13 -9 -103 -62 -134 -62
-8 0 -13 -3 -11 -7 3 -5 -8 -8 -24 -9 -16 -1 -29 0 -29 2 0 2 28 12 63 23 34
11 77 26 96 34 29 12 31 16 15 20 -11 3 -13 5 -4 6 8 0 21 -3 28 -7z m49 2
c-3 -3 -12 -4 -19 -1 -8 3 -5 6 6 6 11 1 17 -2 13 -5z m-280 -10 c-3 -3 -12
-4 -19 -1 -8 3 -5 6 6 6 11 1 17 -2 13 -5z m-54 -11 c-7 -2 -19 -2 -25 0 -7 3
-2 5 12 5 14 0 19 -2 13 -5z m184 1 c-3 -3 -12 -4 -19 -1 -8 3 -5 6 6 6 11 1
17 -2 13 -5z m-40 -10 c-3 -3 -12 -4 -19 -1 -8 3 -5 6 6 6 11 1 17 -2 13 -5z
m-52 -14 c-11 -5 -27 -9 -35 -9 -9 0 -8 4 5 9 11 5 27 9 35 9 9 0 8 -4 -5 -9z
m797 -50 c60 -27 113 -50 118 -50 5 0 12 -4 15 -10 4 -6 -1 -7 -12 -3 -16 6
-17 5 -3 -12 14 -17 14 -18 -17 -2 -18 10 -36 23 -40 29 -4 7 -12 13 -18 14
-5 0 -40 15 -77 32 -37 18 -72 32 -77 32 -5 0 -13 5 -16 10 -12 19 19 10 127
-40z m-677 16 c-82 -47 -190 -128 -187 -139 2 -7 1 -9 -3 -5 -4 4 -37 -16 -74
-43 -66 -51 -42 -25 39 41 66 54 239 170 253 170 7 0 -6 -11 -28 -24z m689
-72 c27 -19 51 -32 54 -30 2 3 18 -9 36 -25 17 -16 46 -37 65 -46 19 -9 29
-19 22 -21 -7 -2 -37 12 -66 32 -30 20 -57 36 -60 36 -3 0 -33 20 -67 45 -35
25 -69 43 -76 40 -7 -2 -11 -1 -8 4 8 12 -22 23 -37 14 -7 -3 -9 -2 -4 2 4 5
-1 17 -10 28 -23 25 80 -28 151 -79z m-1024 76 c-8 -5 -19 -10 -25 -10 -5 0
-3 5 5 10 8 5 20 10 25 10 6 0 3 -5 -5 -10z m415 -12 c-3 -13 -9 -24 -15 -26
-5 -2 -10 -8 -10 -13 0 -6 6 -7 13 -2 6 4 -3 -12 -21 -35 -38 -47 -54 -57 -23
-14 19 27 19 29 1 39 -23 15 -34 5 -17 -15 7 -10 8 -13 1 -9 -7 4 -18 -1 -25
-10 -12 -15 -12 -16 4 -10 10 4 16 3 12 -2 -3 -6 -14 -9 -25 -8 -14 1 -16 4
-8 14 17 21 -4 15 -29 -9 -13 -12 -23 -18 -23 -15 0 6 160 137 167 137 1 0 0
-10 -2 -22z m-255 -18 c-8 -5 -19 -10 -25 -10 -5 0 -3 5 5 10 8 5 20 10 25 10
6 0 3 -5 -5 -10z m740 -37 l45 -48 -50 45 c-27 25 -52 46 -54 48 -2 1 0 2 5 2
6 0 30 -21 54 -47z m-785 17 c-3 -5 -12 -10 -18 -10 -7 0 -6 4 3 10 19 12 23
12 15 0z m865 -95 c13 -14 21 -25 18 -25 -2 0 -15 11 -28 25 -13 14 -21 25
-18 25 2 0 15 -11 28 -25z m-670 11 c0 -2 -6 -9 -14 -15 -11 -9 -16 -9 -22 0
-4 7 -3 9 4 5 6 -3 13 -2 17 4 6 10 15 14 15 6z m230 1 c0 -2 -10 -12 -22 -23
l-23 -19 19 23 c18 21 26 27 26 19z m-300 -10 c0 -1 -28 -29 -62 -62 l-63 -60
60 63 c55 58 65 67 65 59z m90 -17 c-6 -11 -13 -20 -16 -20 -2 0 0 9 6 20 6
11 13 20 16 20 2 0 0 -9 -6 -20z m-72 -40 c-25 -34 -34 -39 -19 -11 6 10 7 22
3 26 -4 5 -2 5 5 1 6 -3 14 -2 18 4 3 5 8 10 11 10 2 0 -5 -13 -18 -30z m707
10 c-3 -5 -12 -10 -18 -10 -7 0 -6 4 3 10 19 12 23 12 15 0z m-665 -50 c-5
-22 -8 -27 -9 -13 -1 21 9 56 14 51 2 -2 0 -19 -5 -38z m-303 -13 c0 -8 -6
-14 -14 -14 -9 0 -10 4 -2 14 6 7 12 13 14 13 1 0 2 -6 2 -13z m211 -32 c-12
-24 -23 -43 -26 -41 -4 5 36 86 43 86 3 0 -5 -20 -17 -45z m-258 -4 c0 -5 -12
-16 -27 -26 l-28 -17 25 25 c28 29 30 30 30 18z m140 -24 c0 -2 -10 -12 -22
-23 l-23 -19 19 23 c18 21 26 27 26 19z m-200 -22 c0 -1 -12 -12 -27 -26 -20
-17 -23 -18 -10 -3 9 11 15 23 12 26 -3 2 2 5 10 5 8 0 15 -1 15 -2z m279 -44
c-6 -18 -13 -30 -15 -28 -2 2 1 18 7 36 6 18 13 30 15 28 2 -2 -1 -18 -7 -36z
m827 -29 c20 -13 34 -26 31 -29 -9 -9 -77 51 -76 67 1 13 2 13 5 0 3 -8 21
-25 40 -38z m-993 -27 c-7 -21 -12 -19 -10 4 0 11 5 18 9 15 4 -3 5 -11 1 -19z
m1537 -9 c0 -2 -8 -10 -17 -17 -16 -13 -17 -12 -4 4 13 16 21 21 21 13z"/>
<path d="M822 894 c-26 -18 -28 -30 -6 -38 9 -3 12 -2 9 5 -4 6 1 19 11 30 21
23 16 24 -14 3z"/>
<path d="M230 1719 c0 -17 30 -49 46 -49 5 0 2 6 -7 13 -8 7 -21 21 -27 32 -9
16 -11 16 -12 4z"/>
<path d="M1910 1341 c0 -6 4 -13 10 -16 6 -3 7 1 4 9 -7 18 -14 21 -14 7z"/>
<path d="M1155 629 c-4 -6 -5 -12 -2 -15 2 -3 7 2 10 11 7 17 1 20 -8 4z"/>
<path d="M1187 627 c2 -4 8 -5 13 -2 4 3 11 -2 14 -11 12 -31 6 -44 -19 -44
-14 0 -25 -4 -25 -9 0 -5 -7 -17 -16 -25 -8 -9 -11 -16 -5 -16 5 0 13 5 16 10
4 6 11 8 16 5 5 -3 6 2 2 11 -5 14 -2 16 20 10 17 -4 27 -2 27 4 0 6 4 9 9 6
12 -8 41 4 41 16 0 5 -4 7 -9 4 -5 -3 -14 7 -19 23 -8 24 -16 29 -40 28 -17
-1 -28 -5 -25 -10z m64 -42 c8 -16 6 -15 -10 4 -12 13 -21 28 -21 35 0 12 14
-5 31 -39z"/>
<path d="M1027 583 c-2 -5 2 -19 9 -33 l14 -25 0 27 c0 26 -15 46 -23 31z"/>
<path d="M1270 540 c0 -5 5 -10 11 -10 5 0 7 5 4 10 -3 6 -8 10 -11 10 -2 0
-4 -4 -4 -10z"/>
<path d="M1204 495 c-3 -14 -10 -25 -15 -25 -5 0 -6 6 -3 14 3 8 1 17 -5 21
-17 10 -13 -31 4 -45 8 -7 12 -17 8 -23 -8 -14 16 0 45 26 12 11 22 25 22 31
0 5 -14 -3 -32 -20 -30 -28 -31 -17 -1 17 12 14 12 17 -1 22 -11 4 -18 -1 -22
-18z"/>
</g>
</svg>
